<?xml version="1.0" ?><!DOCTYPE svg  PUBLIC '-//W3C//DTD SVG 1.1//EN'  'http://www.w3.org/Graphics/SVG/1.1/DTD/svg11.dtd'><svg height="512px" style="enable-background:new 0 0 512 512;" version="1.1" viewBox="0 0 512 512" width="512px" xml:space="preserve" xmlns="http://www.w3.org/2000/svg" xmlns:xlink="http://www.w3.org/1999/xlink"><g id="Gesture_x2C__hand_x2C__hand_touch_x2C__touch"><path d="M446.937,360.598l-21.123-39.657c-5.226-9.797-17.397-13.51-27.202-8.288l-1.763,0.937   c-3.169-25.073,8.091-55.672-1.983-73.96l-46.898-85.132c-1.521-2.755-3.658-5.033-6.157-6.851   c-8.699-8.423-23.044-10.28-35.29-3.531c-2.048,1.122-3.876,2.449-5.561,3.891c-8.659-8.756-23.26-10.759-35.709-3.906   c-6.406,3.534-11.045,8.868-13.775,14.81c-0.35,0.07-0.7,0.145-1.057,0.219l-1.389-2.509c-7.308-13.269-25.165-17.448-39.89-9.332   c-9.729,5.359-15.534,14.733-16.34,24.303c-0.169,0.036-0.346,0.076-0.521,0.115l-26.598-49.215   c4.681-8.321,7.35-17.869,7.35-28.017c0-32.165-26.766-58.333-59.667-58.333S53.697,62.309,53.697,94.474   c0,18.958,9.477,36.8,25.35,47.726c9.94,6.842,21.615,10.496,33.795,10.598c8.919,16.505,17.32,32.05,25.882,47.891   c0.22,0.47,0.422,0.945,0.676,1.406c1.646,2.993,3.126,5.679,4.459,8.094c6.074,11.243,12.293,22.746,18.898,34.969l0.192-0.104   c4.724,8.598,13.152,23.919,28.596,51.953c0,0-57.87,14.669-82.033,27.975c-52.687,29.033-26.438,63.83-15.233,64.689   c95.239-39.039,116.045-31.486,156.024-0.686c0.512,0.389,1.176,1.066,1.956,1.96c-7.942,5.814-10.672,16.666-5.912,25.601   l21.129,39.655c5.224,9.808,17.396,13.515,27.195,8.293l143.977-76.697C448.443,382.579,452.161,370.4,446.937,360.598z    M89.253,127.373c-10.993-7.566-17.556-19.865-17.556-32.899c0-22.24,18.692-40.333,41.667-40.333s41.667,18.093,41.667,40.333   c0,2.42-0.234,4.788-0.658,7.092l-5.033-9.313c-9.719-17.975-29.581-26.063-44.378-18.076   c-14.805,7.982-18.927,29.022-9.213,46.988c2.25,4.163,4.445,8.226,6.604,12.221C97.686,132.154,93.264,130.134,89.253,127.373z    M416.674,368.771c-7.784,4.296-17.579,1.469-21.877-6.319c-4.295-7.783-1.465-17.58,6.32-21.876   c7.785-4.292,17.578-1.468,21.876,6.318C427.29,354.682,424.458,364.474,416.674,368.771z"/></g><g id="Layer_1"/></svg>