<?xml version="1.0" standalone="no"?><!DOCTYPE svg PUBLIC "-//W3C//DTD SVG 1.1//EN" "http://www.w3.org/Graphics/SVG/1.1/DTD/svg11.dtd"><svg xmlns:xlink="http://www.w3.org/1999/xlink" version="1.1" class="highcharts-root" style="font-family:&quot;Lucida Grande&quot;, &quot;Lucida Sans Unicode&quot;, Arial, Helvetica, sans-serif;font-size:12px;" xmlns="http://www.w3.org/2000/svg" width="600" height="400" viewBox="0 0 600 400"><desc>Created with Highcharts 7.0.3</desc><defs><clipPath id="highcharts-yan4wth-105"><rect x="0" y="0" width="523" height="251" fill="none"></rect></clipPath></defs><rect fill="#ffffff" class="highcharts-background" x="0" y="0" width="600" height="400" rx="0" ry="0"></rect><rect fill="none" class="highcharts-plot-background" x="67" y="71" width="523" height="251"></rect><g class="highcharts-plot-bands-0" data-z-index="0"><path fill="rgb(68, 170, 213)" fill-opacity=" 0.1" class="highcharts-plot-band " d="M 67 317.5 L 590 317.5 590 297.5 67 297.5 z"></path><path fill="rgb(0, 0, 0)" fill-opacity=" 0" class="highcharts-plot-band " d="M 67 297.5 L 590 297.5 590 267.5 67 267.5 z"></path><path fill="rgb(68, 170, 213)" fill-opacity=" 0.1" class="highcharts-plot-band " d="M 67 267.5 L 590 267.5 590 230.5 67 230.5 z"></path><path fill="rgb(0, 0, 0)" fill-opacity=" 0" class="highcharts-plot-band " d="M 67 230.5 L 590 230.5 590 188.5 67 188.5 z"></path><path fill="rgb(68, 170, 213)" fill-opacity=" 0.1" class="highcharts-plot-band " d="M 67 188.5 L 590 188.5 590 138.5 67 138.5 z"></path><path fill="rgb(0, 0, 0)" fill-opacity=" 0" class="highcharts-plot-band " d="M 67 138.5 L 590 138.5 590 88.5 67 88.5 z"></path><path fill="rgb(68, 170, 213)" fill-opacity=" 0.1" class="highcharts-plot-band " d="M 67 88.5 L 590 88.5 590 71.5 67 71.5 z"></path></g><text x="77" class="highcharts-plot-band-label " data-z-index="0" transform="translate(0,0)" style="color:#606060;fill:#606060;" y="314" visibility="visible"><tspan>Light air</tspan></text><text x="77" class="highcharts-plot-band-label " data-z-index="0" transform="translate(0,0)" style="color:#606060;fill:#606060;" y="289" visibility="visible"><tspan>Light breeze</tspan></text><text x="77" class="highcharts-plot-band-label " data-z-index="0" transform="translate(0,0)" style="color:#606060;fill:#606060;" y="255" visibility="visible"><tspan>Gentle breeze</tspan></text><text x="77" class="highcharts-plot-band-label " data-z-index="0" transform="translate(0,0)" style="color:#606060;fill:#606060;" y="216" visibility="visible"><tspan>Moderate breeze</tspan></text><text x="77" class="highcharts-plot-band-label " data-z-index="0" transform="translate(0,0)" style="color:#606060;fill:#606060;" y="170" visibility="visible"><tspan>Fresh breeze</tspan></text><text x="77" class="highcharts-plot-band-label " data-z-index="0" transform="translate(0,0)" style="color:#606060;fill:#606060;" y="120" visibility="visible"><tspan>Strong breeze</tspan></text><text x="77" class="highcharts-plot-band-label " data-z-index="0" transform="translate(0,0)" style="color:#606060;fill:#606060;" y="86" visibility="visible"><tspan>High wind</tspan></text><g class="highcharts-grid highcharts-xaxis-grid " data-z-index="1"><path fill="none" data-z-index="1" class="highcharts-grid-line" d="M 71.5 71 L 71.5 322" opacity="1"></path><path fill="none" data-z-index="1" class="highcharts-grid-line" d="M 157.5 71 L 157.5 322" opacity="1"></path><path fill="none" data-z-index="1" class="highcharts-grid-line" d="M 242.5 71 L 242.5 322" opacity="1"></path><path fill="none" data-z-index="1" class="highcharts-grid-line" d="M 328.5 71 L 328.5 322" opacity="1"></path><path fill="none" data-z-index="1" class="highcharts-grid-line" d="M 413.5 71 L 413.5 322" opacity="1"></path><path fill="none" data-z-index="1" class="highcharts-grid-line" d="M 498.5 71 L 498.5 322" opacity="1"></path><path fill="none" data-z-index="1" class="highcharts-grid-line" d="M 584.5 71 L 584.5 322" opacity="1"></path></g><g class="highcharts-grid highcharts-yaxis-grid " data-z-index="1"><path fill="none" data-z-index="1" class="highcharts-grid-line" d="M 67 322.5 L 590 322.5" opacity="1"></path><path fill="none" data-z-index="1" class="highcharts-grid-line" d="M 67 238.5 L 590 238.5" opacity="1"></path><path fill="none" data-z-index="1" class="highcharts-grid-line" d="M 67 155.5 L 590 155.5" opacity="1"></path><path fill="none" data-z-index="1" class="highcharts-grid-line" d="M 67 71.5 L 590 71.5" opacity="1"></path></g><rect fill="none" class="highcharts-plot-border" data-z-index="1" x="67" y="71" width="523" height="251"></rect><g class="highcharts-axis highcharts-xaxis " data-z-index="2"><path fill="none" class="highcharts-tick" stroke="#ccd6eb" stroke-width="1" d="M 71.5 322 L 71.5 332" opacity="1"></path><path fill="none" class="highcharts-tick" stroke="#ccd6eb" stroke-width="1" d="M 157.5 322 L 157.5 332" opacity="1"></path><path fill="none" class="highcharts-tick" stroke="#ccd6eb" stroke-width="1" d="M 242.5 322 L 242.5 332" opacity="1"></path><path fill="none" class="highcharts-tick" stroke="#ccd6eb" stroke-width="1" d="M 328.5 322 L 328.5 332" opacity="1"></path><path fill="none" class="highcharts-tick" stroke="#ccd6eb" stroke-width="1" d="M 413.5 322 L 413.5 332" opacity="1"></path><path fill="none" class="highcharts-tick" stroke="#ccd6eb" stroke-width="1" d="M 498.5 322 L 498.5 332" opacity="1"></path><path fill="none" class="highcharts-tick" stroke="#ccd6eb" stroke-width="1" d="M 584.5 322 L 584.5 332" opacity="1"></path><path fill="none" class="highcharts-axis-line" stroke="#ccd6eb" stroke-width="1" data-z-index="7" d="M 67 322.5 L 590 322.5"></path></g><g class="highcharts-axis highcharts-yaxis " data-z-index="2"><text x="26.046875" data-z-index="7" text-anchor="middle" transform="translate(0,0) rotate(270 26.046875 196.5)" class="highcharts-axis-title" style="color:#666666;fill:#666666;" y="196.5"><tspan>Wind speed (m/s)</tspan></text><path fill="none" class="highcharts-axis-line" data-z-index="7" d="M 67 71 L 67 322"></path></g><g class="highcharts-series-group" data-z-index="3"><g data-z-index="0.1" class="highcharts-series highcharts-series-0 highcharts-spline-series highcharts-color-0 " transform="translate(67,71) scale(1 1)" clip-path="url(#highcharts-yan4wth-105)"><path fill="none" d="M 5.1274509803922 189.08666666666664 C 5.1274509803922 189.08666666666664 11.53676470588248 195.78 15.809640522876 195.78 C 20.082516339869198 195.78 22.2189542483658 191.76399999999973 26.491830065359 185.74 C 30.764705882352597 179.71599999999972 32.901143790849396 165.66 37.174019607843 165.66 C 41.4468954248366 165.66 43.58333333333339 192.43333333333334 47.856209150327 192.43333333333334 C 52.129084967320196 192.43333333333334 54.26552287581679 189.0866666666666 58.53839869281 187.41333333333333 C 62.811274509803596 185.73999999999992 64.9477124183004 187.41333333333333 69.220588235294 184.06666666666666 C 73.49346405228759 180.72 75.6299019607844 174.36133333333365 79.902777777778 167.33333333333331 C 84.1756535947712 160.30533333333366 86.3120915032678 148.92666666666668 90.584967320261 148.92666666666668 C 94.8578431372566 148.92666666666668 96.9942810457544 182.3933333333333 101.26715686275 189.08666666666664 C 105.54003267974201 195.78 107.676470588238 195.78 111.94934640523 195.78 C 116.22222222222199 195.78 118.358660130718 152.27333333333328 122.63153594771 143.90666666666664 C 126.904411764706 135.54 129.040849673204 135.54 133.3137254902 135.54 C 137.58660130719198 135.54 139.723039215688 150.6 143.99591503268 150.6 C 148.268790849672 150.6 150.405228758168 137.2133333333333 154.67810457516 137.2133333333333 C 158.950980392156 137.2133333333333 161.087418300654 170.68 165.36029411765 177.37333333333333 C 169.633169934642 184.06666666666666 171.769607843138 182.05866666666668 176.04248366013 184.06666666666666 C 180.315359477122 186.07466666666664 182.45179738561802 187.41333333333333 186.72467320261 187.41333333333333 C 190.997549019606 187.41333333333333 193.133986928104 167.33333333333331 197.4068627451 167.33333333333331 C 201.679738562092 167.33333333333331 203.816176470588 169.00666666666666 208.08905228758 169.00666666666666 C 212.361928104576 169.00666666666666 214.49836601307396 103.7466666666667 218.77124183007 97.05333333333334 C 223.04411764706202 90.35999999999999 225.18055555555802 90.35999999999999 229.45343137255 90.35999999999999 C 233.726307189542 90.35999999999999 235.86274509803798 90.35999999999999 240.13562091503 92.03333333333333 C 244.408496732026 93.70666666666668 246.54493464052402 145.57999999999998 250.81781045752 145.57999999999998 C 255.09068627451202 145.57999999999998 257.22712418300796 107.09333333333333 261.5 92.03333333333333 C 265.77287581699204 76.97333333333333 267.909313725488 85.33999999999295 272.18218954248 70.27999999999997 C 276.45506535947595 55.219999999992964 278.59150326797396 16.73333333333332 282.86437908497 16.73333333333332 C 287.13725490196197 16.73333333333332 289.273692810458 45.17999999999999 293.54656862745 58.56666666666666 C 297.81944444444196 71.95333333333332 299.955882352938 83.66666666666666 304.22875816993 83.66666666666666 C 308.50163398692604 83.66666666666666 310.63807189542405 81.32400000000047 314.91094771242 80.32 C 319.183823529412 79.31600000000046 321.320261437908 78.64666666666665 325.5931372549 78.64666666666665 C 329.86601307189596 78.64666666666665 332.002450980394 89.0213333333311 336.27532679739 93.70666666666665 C 340.548202614382 98.39199999999776 342.684640522878 102.07333333333332 346.95751633987 102.07333333333332 C 351.23039215686197 102.07333333333332 353.36683006535793 73.62666666666667 357.63970588235 73.62666666666667 C 361.912581699346 73.62666666666667 364.049019607844 75.29999999999998 368.32189542484 75.29999999999998 C 372.59477124183206 75.29999999999998 374.731209150328 65.25999999999999 379.00408496732 65.25999999999999 C 383.276960784312 65.25999999999999 385.413398692808 76.97333333333333 389.6862745098 76.97333333333333 C 393.95915032679596 76.97333333333333 396.09558823529403 74.96533333333475 400.36846405229 71.95333333333335 C 404.641339869282 68.94133333333474 406.777777777778 61.9133333333333 411.05065359477 61.9133333333333 C 415.32352941176197 61.9133333333333 417.459967320258 74.63066666666934 421.73284313725 80.32 C 426.005718954246 86.00933333333602 428.142156862744 90.35999999999999 432.41503267974 90.35999999999999 C 436.68790849673206 90.35999999999999 438.8243464052281 85.33999999999759 443.09722222222 80.32 C 447.37009803921603 75.2999999999976 449.50653594771404 65.25999999999999 453.77941176471 65.25999999999999 C 458.052287581702 65.25999999999999 460.18872549019795 70.27999999999997 464.46160130719 70.27999999999997 C 468.73447712418204 70.27999999999997 470.870915032678 33.46666666666664 475.14379084967 33.46666666666664 C 479.41666666666595 33.46666666666664 481.55310457516396 41.833333333333314 485.82598039216 41.833333333333314 C 490.0988562091519 41.833333333333314 492.2352941176479 41.833333333333314 496.50816993464 41.833333333333314 C 500.78104575163195 41.833333333333314 502.91748366012797 53.88133333333704 507.19035947712 61.9133333333333 C 511.46323529411603 69.94533333333705 517.87254901961 81.99333333333334 517.87254901961 81.99333333333334" class="highcharts-graph" data-z-index="1" stroke="#7cb5ec" stroke-width="4" stroke-linejoin="round" stroke-linecap="round"></path></g><g data-z-index="0.1" class="highcharts-markers highcharts-series-0 highcharts-spline-series highcharts-color-0 " transform="translate(67,71) scale(1 1)" clip-path="none"></g><g data-z-index="0.1" class="highcharts-series highcharts-series-1 highcharts-spline-series highcharts-color-1 " transform="translate(67,71) scale(1 1)" clip-path="url(#highcharts-yan4wth-105)"><path fill="none" d="M 5.1274509803922 247.65333333333334 C 5.1274509803922 247.65333333333334 11.53676470588248 249.32666666666665 15.809640522876 249.32666666666665 C 20.082516339869198 249.32666666666665 22.2189542483658 249.32666666666665 26.491830065359 249.32666666666665 C 30.764705882352597 249.32666666666665 32.901143790849396 249.32666666666665 37.174019607843 249.32666666666665 C 41.4468954248366 249.32666666666665 43.58333333333339 245.98 47.856209150327 245.98 C 52.129084967320196 245.98 54.26552287581679 247.65333333333334 58.53839869281 247.65333333333334 C 62.811274509803596 247.65333333333334 64.9477124183004 245.98 69.220588235294 245.98 C 73.49346405228759 245.98 75.6299019607844 249.32666666666665 79.902777777778 249.32666666666665 C 84.1756535947712 249.32666666666665 86.3120915032678 239.28666666666666 90.584967320261 239.28666666666666 C 94.8578431372566 239.28666666666666 96.9942810457544 244.30666666666593 101.26715686275 245.98 C 105.54003267974201 247.65333333333263 107.676470588238 247.65333333333334 111.94934640523 247.65333333333334 C 116.22222222222199 247.65333333333334 118.358660130718 247.65333333333334 122.63153594771 247.65333333333334 C 126.904411764706 247.65333333333334 129.040849673204 245.98 133.3137254902 245.98 C 137.58660130719198 245.98 139.723039215688 249.32666666666665 143.99591503268 249.32666666666665 C 148.268790849672 249.32666666666665 150.405228758168 246.98399999999953 154.67810457516 245.98 C 158.950980392156 244.97599999999954 161.087418300654 244.30666666666667 165.36029411765 244.30666666666667 C 169.633169934642 244.30666666666667 171.769607843138 245.31066666666666 176.04248366013 245.98 C 180.315359477122 246.64933333333335 182.45179738561802 247.65333333333334 186.72467320261 247.65333333333334 C 190.997549019606 247.65333333333334 193.133986928104 245.98 197.4068627451 245.98 C 201.679738562092 245.98 203.816176470588 247.65333333333334 208.08905228758 247.65333333333334 C 212.361928104576 247.65333333333334 214.49836601307396 244.30666666666667 218.77124183007 244.30666666666667 C 223.04411764706202 244.30666666666667 225.18055555555802 251 229.45343137255 251 C 233.726307189542 251 235.86274509803798 235.94 240.13562091503 235.94 C 244.408496732026 235.94 246.54493464052402 245.98 250.81781045752 245.98 C 255.09068627451202 245.98 257.22712418300796 241.964 261.5 239.28666666666666 C 265.77287581699204 236.60933333333332 267.909313725488 236.27466666666496 272.18218954248 232.59333333333333 C 276.45506535947595 228.9119999999983 278.59150326797396 220.88 282.86437908497 220.88 C 287.13725490196197 220.88 289.273692810458 230.92 293.54656862745 230.92 C 297.81944444444196 230.92 299.955882352938 227.57333333333332 304.22875816993 227.57333333333332 C 308.50163398692604 227.57333333333332 310.63807189542405 229.2466666666659 314.91094771242 230.92 C 319.183823529412 232.5933333333325 321.320261437908 234.60133333333394 325.5931372549 235.94 C 329.86601307189596 237.2786666666673 332.002450980394 237.61333333333334 336.27532679739 237.61333333333334 C 340.548202614382 237.61333333333334 342.684640522878 235.94 346.95751633987 235.94 C 351.23039215686197 235.94 353.36683006535793 247.65333333333334 357.63970588235 247.65333333333334 C 361.912581699346 247.65333333333334 364.049019607844 247.65333333333334 368.32189542484 244.30666666666667 C 372.59477124183206 240.96 374.731209150328 230.92 379.00408496732 230.92 C 383.276960784312 230.92 385.413398692808 245.98 389.6862745098 245.98 C 393.95915032679596 245.98 396.09558823529403 212.51333333333332 400.36846405229 212.51333333333332 C 404.641339869282 212.51333333333332 406.777777777778 229.24666666666664 411.05065359477 234.26666666666665 C 415.32352941176197 239.28666666666666 417.459967320258 239.28666666666666 421.73284313725 239.28666666666666 C 426.005718954246 239.28666666666666 428.142156862744 234.26666666666665 432.41503267974 234.26666666666665 C 436.68790849673206 234.26666666666665 438.8243464052281 237.61333333333334 443.09722222222 237.61333333333334 C 447.37009803921603 237.61333333333334 449.50653594771404 217.53333333333333 453.77941176471 217.53333333333333 C 458.052287581702 217.53333333333333 460.18872549019795 230.92 464.46160130719 230.92 C 468.73447712418204 230.92 470.870915032678 230.92 475.14379084967 227.57333333333332 C 479.41666666666595 224.22666666666666 481.55310457516396 189.08666666666664 485.82598039216 189.08666666666664 C 490.0988562091519 189.08666666666664 492.2352941176479 214.1866666666667 496.50816993464 215.86 C 500.78104575163195 217.53333333333333 502.91748366012797 215.86 507.19035947712 217.53333333333333 C 511.46323529411603 219.20666666666665 517.87254901961 225.9 517.87254901961 225.9" class="highcharts-graph" data-z-index="1" stroke="#434348" stroke-width="4" stroke-linejoin="round" stroke-linecap="round"></path></g><g data-z-index="0.1" class="highcharts-markers highcharts-series-1 highcharts-spline-series highcharts-color-1 " transform="translate(67,71) scale(1 1)" clip-path="none"></g></g><g class="highcharts-label highcharts-series-label highcharts-series-label-0 " opacity="1" data-z-index="3" transform="translate(266,80)"><path fill="none" class="highcharts-label-box" d="M 0 0" stroke="#7cb5ec" stroke-width="1"></path><text x="0" data-z-index="1" style="font-weight:bold;color:#7cb5ec;fill:#7cb5ec;" y="12">Hestavollane</text></g><g class="highcharts-label highcharts-series-label highcharts-series-label-1 " opacity="1" data-z-index="3" transform="translate(560,300)"><path fill="none" class="highcharts-label-box" d="M 0 0" stroke="#434348" stroke-width="1"></path><text x="0" data-z-index="1" style="font-weight:bold;color:#434348;fill:#434348;" y="12">Vik</text></g><text x="300" text-anchor="middle" class="highcharts-title" data-z-index="4" style="color:#333333;font-size:18px;fill:#333333;" y="24"><tspan>Wind speed during two days</tspan></text><text x="300" text-anchor="middle" class="highcharts-subtitle" data-z-index="4" style="color:#666666;fill:#666666;" y="52"><tspan>13th &amp; 14th of February, 2018 at two locations in Vik i Sogn, Norway</tspan></text><g class="highcharts-legend" data-z-index="7" transform="translate(211,356)"><rect fill="none" class="highcharts-legend-box" rx="0" ry="0" x="0" y="0" width="177" height="29" visibility="visible"></rect><g data-z-index="1"><g><g class="highcharts-legend-item highcharts-spline-series highcharts-color-0 highcharts-series-0" data-z-index="1" transform="translate(8,3)"><path fill="none" d="M 0 11 L 16 11" class="highcharts-graph" stroke="#7cb5ec" stroke-width="4"></path><text x="21" style="color:#333333;cursor:pointer;font-size:12px;font-weight:bold;fill:#333333;" text-anchor="start" data-z-index="2" y="15"><tspan>Hestavollane</tspan></text></g><g class="highcharts-legend-item highcharts-spline-series highcharts-color-1 highcharts-series-1" data-z-index="1" transform="translate(126.96875,3)"><path fill="none" d="M 0 11 L 16 11" class="highcharts-graph" stroke="#434348" stroke-width="4"></path><text x="21" y="15" style="color:#333333;cursor:pointer;font-size:12px;font-weight:bold;fill:#333333;" text-anchor="start" data-z-index="2"><tspan>Vik</tspan></text></g></g></g></g><g class="highcharts-axis-labels highcharts-xaxis-labels " data-z-index="7"><text x="72.127450980392" style="color:#666666;cursor:default;font-size:11px;fill:#666666;" text-anchor="middle" transform="translate(0,0)" y="341" opacity="1"><tspan>13. Feb</tspan></text><text x="157.58496732026" style="color:#666666;cursor:default;font-size:11px;fill:#666666;" text-anchor="middle" transform="translate(0,0)" y="341" opacity="1">08:00</text><text x="243.04248366013" style="color:#666666;cursor:default;font-size:11px;fill:#666666;" text-anchor="middle" transform="translate(0,0)" y="341" opacity="1">16:00</text><text x="328.5" style="color:#666666;cursor:default;font-size:11px;fill:#666666;" text-anchor="middle" transform="translate(0,0)" y="341" opacity="1"><tspan>14. Feb</tspan></text><text x="413.95751633987" style="color:#666666;cursor:default;font-size:11px;fill:#666666;" text-anchor="middle" transform="translate(0,0)" y="341" opacity="1">08:00</text><text x="499.41503267974" style="color:#666666;cursor:default;font-size:11px;fill:#666666;" text-anchor="middle" transform="translate(0,0)" y="341" opacity="1">16:00</text><text x="570.0546875" style="color:#666666;cursor:default;font-size:11px;fill:#666666;" text-anchor="middle" transform="translate(0,0)" y="341" opacity="1"><tspan>15. Feb</tspan></text></g><g class="highcharts-axis-labels highcharts-yaxis-labels " data-z-index="7"><text x="52" style="color:#666666;cursor:default;font-size:11px;fill:#666666;" text-anchor="end" transform="translate(0,0)" y="326" opacity="1">0</text><text x="52" style="color:#666666;cursor:default;font-size:11px;fill:#666666;" text-anchor="end" transform="translate(0,0)" y="242" opacity="1">5</text><text x="52" style="color:#666666;cursor:default;font-size:11px;fill:#666666;" text-anchor="end" transform="translate(0,0)" y="159" opacity="1">10</text><text x="52" style="color:#666666;cursor:default;font-size:11px;fill:#666666;" text-anchor="end" transform="translate(0,0)" y="75" opacity="1">15</text></g><text x="590" class="highcharts-credits" text-anchor="end" data-z-index="8" style="cursor:pointer;color:#999999;font-size:9px;fill:#999999;" y="395">Highcharts.com</text></svg>